<mxfile host="app.diagrams.net" modified="2021-03-17T07:19:49.936Z" agent="5.0 (Windows NT 6.1; Win64; x64) AppleWebKit/537.36 (KHTML, like Gecko) Chrome/89.0.4389.82 Safari/537.36" etag="F7kA955IAEEoOIzp25mM" version="14.4.8" type="github">
  <diagram id="SVYUsny-jK-jlnmF0OQC" name="Page-1">
    <mxGraphModel dx="1673" dy="828" grid="0" gridSize="10" guides="1" tooltips="1" connect="1" arrows="1" fold="1" page="0" pageScale="1" pageWidth="850" pageHeight="1100" math="0" shadow="0">
      <root>
        <mxCell id="0" />
        <mxCell id="1" parent="0" />
        <mxCell id="qZmVdzLqrXIxTYNHXZgQ-53" value="" style="rounded=1;whiteSpace=wrap;html=1;fontSize=28;fillColor=#dae8fc;strokeWidth=3;dashed=1;perimeterSpacing=0;fontFamily=Times New Roman;strokeColor=#6c8ebf;" vertex="1" parent="1">
          <mxGeometry x="240" y="180" width="840" height="180" as="geometry" />
        </mxCell>
        <mxCell id="qZmVdzLqrXIxTYNHXZgQ-31" value="" style="rounded=1;whiteSpace=wrap;html=1;fontSize=28;fillColor=#d5e8d4;strokeWidth=3;dashed=1;fontFamily=Times New Roman;strokeColor=#82b366;" vertex="1" parent="1">
          <mxGeometry x="670" y="480" width="530" height="180" as="geometry" />
        </mxCell>
        <mxCell id="qZmVdzLqrXIxTYNHXZgQ-28" value="" style="rounded=1;whiteSpace=wrap;html=1;fontSize=28;fillColor=#f8cecc;strokeWidth=3;dashed=1;fontFamily=Times New Roman;strokeColor=#b85450;" vertex="1" parent="1">
          <mxGeometry x="120" y="480" width="530" height="180" as="geometry" />
        </mxCell>
        <mxCell id="qZmVdzLqrXIxTYNHXZgQ-26" value="" style="endArrow=classic;html=1;strokeWidth=4;fontFamily=Times New Roman;fontSize=28;" edge="1" parent="1">
          <mxGeometry width="50" height="50" relative="1" as="geometry">
            <mxPoint x="330" y="570" as="sourcePoint" />
            <mxPoint x="440" y="570" as="targetPoint" />
          </mxGeometry>
        </mxCell>
        <mxCell id="qZmVdzLqrXIxTYNHXZgQ-27" value="encryption" style="text;html=1;strokeColor=none;fillColor=none;align=center;verticalAlign=middle;whiteSpace=wrap;rounded=0;fontStyle=0;fontSize=28;fontFamily=Times New Roman;" vertex="1" parent="1">
          <mxGeometry x="346" y="540" width="40" height="20" as="geometry" />
        </mxCell>
        <mxCell id="qZmVdzLqrXIxTYNHXZgQ-32" style="edgeStyle=orthogonalEdgeStyle;rounded=0;orthogonalLoop=1;jettySize=auto;html=1;strokeWidth=4;fontSize=28;fontFamily=Times New Roman;" edge="1" parent="1">
          <mxGeometry relative="1" as="geometry">
            <mxPoint x="871" y="570" as="sourcePoint" />
            <mxPoint x="1000" y="570" as="targetPoint" />
          </mxGeometry>
        </mxCell>
        <mxCell id="qZmVdzLqrXIxTYNHXZgQ-33" value="decryption" style="text;html=1;strokeColor=none;fillColor=none;align=center;verticalAlign=middle;whiteSpace=wrap;rounded=0;fontStyle=0;fontSize=28;fontFamily=Times New Roman;" vertex="1" parent="1">
          <mxGeometry x="915" y="540" width="40" height="20" as="geometry" />
        </mxCell>
        <mxCell id="qZmVdzLqrXIxTYNHXZgQ-54" value="" style="endArrow=classic;html=1;strokeWidth=4;fontSize=28;fontFamily=Times New Roman;" edge="1" parent="1">
          <mxGeometry width="50" height="50" relative="1" as="geometry">
            <mxPoint x="560" y="269.52" as="sourcePoint" />
            <mxPoint x="810" y="269.52" as="targetPoint" />
          </mxGeometry>
        </mxCell>
        <mxCell id="qZmVdzLqrXIxTYNHXZgQ-55" value="privacy-preserving cloud computing" style="text;html=1;strokeColor=none;fillColor=none;align=center;verticalAlign=middle;whiteSpace=wrap;rounded=0;fontSize=28;fontStyle=0;fontFamily=Times New Roman;" vertex="1" parent="1">
          <mxGeometry x="570" y="220" width="221.23" height="20" as="geometry" />
        </mxCell>
        <mxCell id="qZmVdzLqrXIxTYNHXZgQ-56" value="" style="endArrow=classic;html=1;strokeWidth=6;fontSize=28;fontFamily=Times New Roman;fillColor=#FFFFFF;jumpSize=6;endSize=6;" edge="1" parent="1">
          <mxGeometry width="50" height="50" relative="1" as="geometry">
            <mxPoint x="480" y="463" as="sourcePoint" />
            <mxPoint x="480" y="377" as="targetPoint" />
          </mxGeometry>
        </mxCell>
        <mxCell id="qZmVdzLqrXIxTYNHXZgQ-57" value="" style="endArrow=classic;html=1;strokeWidth=6;fontSize=28;fontFamily=Times New Roman;fillColor=#FFFFFF;jumpSize=6;endSize=6;" edge="1" parent="1">
          <mxGeometry width="50" height="50" relative="1" as="geometry">
            <mxPoint x="840" y="377" as="sourcePoint" />
            <mxPoint x="840" y="463" as="targetPoint" />
          </mxGeometry>
        </mxCell>
        <mxCell id="qZmVdzLqrXIxTYNHXZgQ-58" value="encrypted videos" style="text;html=1;strokeColor=none;fillColor=none;align=center;verticalAlign=middle;whiteSpace=wrap;rounded=0;fontSize=28;fontFamily=Times New Roman;" vertex="1" parent="1">
          <mxGeometry x="279" y="297" width="120" height="50" as="geometry" />
        </mxCell>
        <mxCell id="qZmVdzLqrXIxTYNHXZgQ-60" value="Local PC" style="text;html=1;strokeColor=none;fillColor=none;align=center;verticalAlign=middle;whiteSpace=wrap;rounded=0;fontSize=24;fontStyle=1" vertex="1" parent="1">
          <mxGeometry x="299.62" y="759" width="170" height="20" as="geometry" />
        </mxCell>
        <mxCell id="qZmVdzLqrXIxTYNHXZgQ-61" value="" style="shape=image;verticalLabelPosition=bottom;labelBackgroundColor=#ffffff;verticalAlign=top;aspect=fixed;imageAspect=0;image=data:image/png,iVBORw0KGgoAAAANSUhEUgAAAMkAAACuCAYAAACcNynnAAARtUlEQVR4Ae2dfXAU5R3H/a+OilYLtoBFRQWVMjgVrTCGhBAQJEgQgSAwwUjCJUfIXXJ5gUQwGnyJjdpakLS8qFTsxMKgiIhgERWxlUGgiIOVgtpxUCwO4tD+0Zlf53fHc7d5bp/b3XvZ27393szOs/vc3bPP/vb3eb7P2z57HuEDC8ACCS1wXsJv8SUsAAsQIIETwAIGFgAkBgbC17AAIIEPwAIGFgAkBgby8tenTp6hV194nx6uWkezbltGRVfU083nz3flNuISP02+sZUqx3XSmo6ttGf7x6ZvLSAxbSpv/bB75dthp3IrFGby/cB9a+jo4a8MbywgMTSR937QPPsPrlQLM2DIv5n2yzZDUACJ9xhIeMXBqcs9A4gAxggUQJLQZbz1ZVf7Zs8BYgYUQOItDpRXu3fXEc8CIkDhNoreB5DoWcWDccF71NWs/F4+WpcfpE9KG+h//kWu3E7Na6LXxtfT7Cv8CQuD3dsOxd19QBJnEu9FcA+PKE3lcO6ABa6EIhHMz44MKK/3mdaNcQ4ASOJM4r0IVVskr5ePTpQ35RwkDFBgUI0uKDyOIn8AiWwRDx6rIAldX5OTgDAkG4vqdCHhAUf5A0hki3jwWAXJ07cEchaSk/c360LCI/PyB5DIFvHgsQoSrrsnqtu7/Tu5/SWOZRdIChJu6G1a+x51NnRT072/D8+H4bocNnfaoHjwYt1StbhPFVVc7Y9u/msXUNuwhcTw/O3uBjpd2exqiAQUcpgSJO9sOUheHJGVjYjjyCTHCT+ponUFQdeCorqPSUOikmTViRDvztmyydw330B3dhOrrjUpSACIdxxe5ThG8dxd7LY2iuqaLEMCQACIypnkeB57cBMocv7FsSVIuA0i/ogQsJjxATf1iKmuxxIkiRrpo4Y9SpNrt9O0R/bRzGeOYPOADWY8tp9Kgn+hvKHLlIXn+MuqXDNKnzIkn396QmmIMYXP0v2v/UCVuwibB21QvvkMjRm9Qukfq/PcMb6SMiSvv/RXXSOMvHIxlXV/Czg8CIe2UGQfYF/Qc7Tp/apd0TbRyzvHyR/lYCIPFOolMrl2BwDxOCAClskL39T1Efab8itjg5DaAclM7rcMqaH1BUH6YEqIvrnfeKBTz78tQcIj6XqJzFnzBSABJGEfmNX1T10f0fObbMQ9Obw2oaKp8mRaSXiKiV4iohRBiPYY+4CejzgpblKfajo2R3+6vyqfgAQqkNaagMrRnBb/vc48M1UeAQkg8SQkTTfGD3QCEsCQVhhU1WuVozkxvruwrkcbRZVHKAngSSs8Kkd7cGaIukLNtm4dFY3kHxNUtpPkrmlV3gEJILEFkr3dbUTHO7KyMZwqAL6dF+saVv0GkACSnIeE4awq1FeUPSWhaJULkACGtMJgtU2STSVhSJaVNeiqyXOjYg+JARJA4mlIVFUu7SxlQAJIPA2JSkm0PVyABJB4GhJVm2T/dLRJbHEMVf3ci/Gq0jibbRJVVWvEhT4660PvFiCxWUFVkDhxnERe11iVd3QB2+xEua4uKkdzYvxuTfcvP4uvyiMgASRpVVuVozktftXtsa5fsViFKo+ABJB4EhIBhjYEJIAhrTCoqo0qR3NKfP3g+Nm/AhRVHqEkgCet8KgcLZvxIy+aT3MH+GnL+ProFBQBhjZU5RGQABJbIFkyNLKwNo9w27VtKKqjQ6WNdNZn7pV1gAQwpBUGq9UtXnVeW2o7cR+QABJAYvASVEACSAAJIMFqJaoqkJ3xqtIY1S2U0raU0nY6e7LnAiTnx6+knqwx8b/cVD5AAkigGAa1hlQg4SrZK+Pq6MOpsenrVnrBvpvXFP4vp/FJqfXeNFXeMU5icNOheNYUT+Voidokm8bVUf7Fvh4TDIt7V1ty9JUjAj3+z/ngdYa/KNNfrVEPPlXeAQkgSas6qhxNBQkDIv4z9vIGmnLlUsq/NOLw+b18pkB54ubaaBoVeQGqu7OOigf6w3GT+lQRK4weFHKcyIccAhJAkjVI2HmFggRuW0nLp22JbqXXtYednNVAdmbtMSuFcOojWx+OLln0/cFHiYHh73i0X/sf1b5IRw4BCSDJGiSsLuyQrCBaQMS+cNZESiCqWb+ubIwCItb3Ymg4jYKLzb3kVJxPDgEJIMkaJOvyI2thcRVLgKENGR52WFVVjRVBQNIVWhQHCcMiHF6lHtp48Vs5BCSAJGuQCCUpuCwYB8lTJZtMObgAbWlpKA6SnauWhtMo7l2F6hZ6oKz1QGXSXnIpLI5VajCxd1XYkbkNIlSEAZnYP/JqOaP2BLdJRLtmfVtLFBSuak26JtJ4Z7XRKoZqX+RVDqEkUJKsKQk7K49njOoVAYWdc+zljVEFGdXLZ6pnSttDVtCnKgoHp1dq4X2NMhziGJAAkqxCIkCZd9WCKBzsnKwgiRrsshq8NbGeuFolHJu7j7lr2Eoa4r9yCEgASdYhEQ7PDq2qlonfGIVc/Uo2DRkOcQxIAIljIDECINPfCyjkEJAAEkBy7jkTGQ5xDEgACSABJM7pHs1k16tT0halrxwm207IdBVLm76cZ3EMJYGSQEmgJFASO1VGlL5yCCVBaZzW0thOp073uWQ4xDEgASSA5JwPCCjkEJAAEkACSIgqx3VGh/y1pUS65RrpubsNpfUN7T6UBEoCJYGSQEmgcOYUTqse2v2Z/avDCzPw47h2b6vzgqbmc2nzq93HOAlUMK0qqHUuJ+0/NMz4OXdVfgEJIPEEJKEEL+8Ro+6ABDCkFQZV9VPlaNmMb7yhhl6fkPgFPgyKKo9QEsCTVnhUjobeLThaWh1NVUq7IR6QYC1gwGBQIAISQAJIAAmdJzdSxDFG3M2NE7ihSpTJPEJJoCRQEigJlCSTpawX0oaSQEmgJFASKIkXSvtMXiOUBEoCJYGSQEkyWcp6IW0oCZQESgIlgZJ4obTP5DVCSaAkUBIoCZQkk6WsF9KGkkBJoCRJKknn8Fp6eUxd1ra9UxsM33alAlxMzRIh5m4ZOIEX1CCVa1Q5mhPiNxTVJQRFlUcBhwiVkBQPjrzDTk6ouGIzYYMNhA/I/uGk41n9qzMLScHPIi+Od9JFIy/zlY+cwjbxtvlTYYaVpLB/HW6ITpsMzhjvjHo2aR1Sk7X2CLeF9kwJJVSRtDzjPn5gEyABJEn7wFvFxk4qVi3JVqgHN8fJH2WbpGTIA0kbSHVyxJsrhXPBTp5YCGL2yGWABEqStA94AhLV47tdoWbCBhsIH1CpnqchoeMdhA02ED4ASHSqG8I4CAEK+wAgASRQTYOaAyABJIAEkFifBYxqFqpZWh+AkkBJoCRQEiiJtlTEvnWVhJJASaAkUBIoCdTDunpobQYlgZJASaAkUBJtqYh966oCJYGSQEmgJFASqId19dDaDEoCJYGSQEmgJNpSEfvWVQVKAiWBkkBJoCRQD+vqobWZp5XkwYrndJ8V2P3CUpSuBqWr1olyeX/7yiW6PsLgfFHWZLhaSaIFID6b1UjH5qSWRqL0+TsV4KYXguhq36ybyEOzGwAJIAn7APuCytGMHFT+/pvyJnpyeC3NH+ingot90XRHX1JFC66roadvCaQdGlXeTUOyZ/vH0YzKib3/xzaA4nFQ2AdkvxDH9YMXWFKR3SUhmnBZVY/0Jlzlp0nX+HvEMTzrC4KW0pZh1B6L/MqhaUj+/fXpHhnUJjS2fzVtW7EEoHgUlI0drTSmb7XSP169I/HKiVpHZaCEb80YVkMvtrXQ4S0PR33rszfbaX1bCzE04nesLNo0kt0X6cmhaUj4h50N3dGMyQnx8ZTra6h1Wr3rV09pLwvR7JsXZnQLTAi63k5cvZo2tCahT1Rc7TftwM+OjC2lu7ZlURQMVTuuqaQ+eu4dE1Nf/E7PpzlO/igXp+Mffv2vU3TXDS3RjKkSdX98pQeu0Z6F8XYW15uC5MD0WHvm+dbFhoAIcN5YEVs08ficRlPnUimNym8tQcI/3rvriAccCJCoHMZK/EujzVezAueqWb6CgGlABChLSkNhn7Ta9pFhUV2bZUj4D4f3fZ7joAASlcOYjQ8OstZYH3tppKF+8JVY+0NAYBQe2PRQ2B+LflzlDCURVB09/BUFpy7PUVgAiVkY5N/d07eaNhq8LEcuwXkMhNO54+d+yyoiABrbL9Jx8Om9yVe55GsRx8LnRZiwTSJ+pA3f2XKQGkq7cgwWQCIcxGw4o5+fuOF9uqLZcmn+xp2RBnjDXXVJQ1I7PvJqkM0WetJkWFXXqvV33rcMiUjg1MkztGvzfupe+TbxwKObt/YF63Sh5zclWX3vX/tNC3XTCtz9O8faSLXuM/dUMQhiW50XJHbKVNf5XZcfDNuos7IpaUgenxdp+D+fH7AMqYAl45AIWHIhPLzvuK5jG71OTBhbG6og2bDqHceaSjW7guHQXlu69j+aFml4z7xpYdKQiK7oVIAFJBZcEpDoT0HKFCTfVzbTry6IdEkf37nMMihHd7SHC7VbL5hPpyutV/cE7IAEkJi2gN1Kwk46d0BkpL2jotEyJPzaB3bwuQPMD1wKMLQhIDHtItzFjeqWnsNkSknYUbeMj42eszKIXiuj8OSHj0SrxjznS+v0Vvf1rpnj5E/SDXc5ITcfAxJ7q1vCmesHR6a4cPvCCA7x/ZxbasOQrLo99YmOgMQCtYAkO5AwLFpH3fB4qxKW5YFIFUv8XoCWSijSkkPZdaAk4RkFqG7JjsLHmaxuaZ2bVUGcn2cXl4+spWVlDfRYeQNVjgpQUd/YNHpWH+1/U9kX55RDQCJbAJCEx29kR+FjuyBhR+f2BTfmR1wYe+BK5GnkRZFGOrdjUoFC/q9IXw5lF4GSABJHQCIc+KyvmfZPD1F3YR1tKKqjQ6WNdNa3KK1wiHPJcIhjQCJbAJA4ChLhwHaEAgo5lF0ESgJIAIm0dJajIOGZxfy8SrY3njIilyZ8POXyqvA8JZ76YHYLDIo9jqpN86mml7N+ncLO3317pocfZGMw0Q6lMDqH9v5o93sYJ5UJjnJCZo8PfXiM7ivooLze+hMBtZnFfuaeJpwydAl1hrrDtw2Q9LSz7Mu2Vrd4mj0cv+cNybY9Zt7ajuqWU6pbL/52BwCRbka2ARHnL+wXG6cQcRza2QVsVDXKxPfaa9XuZ0VJdr7yEQBxKCBR5/hRvMIBkggutlS3ykd3ABKnQxLOX8+BPEBiIyR5fSKT0qKlliscJr5k9Vr+AYlNkBw/ckKpIh9Na8jISGom6q+5kiYvZO2/Vr+bWi4EAIlNkKjW7bKy0l+uOKhTroOdXwZC7xiQABLPqhggicwF0ysYOE7+ZLzhDiXJzOS8VFTJLCRLhy7M2YLk3btiT0ZqYZk0eLHMSPJLCsWlpIgAJO6FZHq/6pyFZPEQ/RkfvLyS/IGS+J3nxKmohJn/mlUSLmEbb0jfQ05m8mbHb7adWxxPqyBif03HVpkRKIkdN8Vp57ACCTtP6y9qKBd6InlJVKNr55dXyR8oCZTEVE8Xw1J4iY+4V9KNG69ZLNRCFT5w3xqZj/BxxiE58eUp3cxN6p3aiuBOK53dlJ+WIfov4pl12zLde6VyqlyKH9O/no4c+DI7kPBZx1/dpDS+G0slt+c5r1fP6SfC2T/ee4wKfqo/2VH8JldD7mBSfTKuJHziuntWKCHJVaO77bpKhrTS2R/+G/aTR2pe9Mz94gKcH/5L9LEFEs6E25zGa/nd/cbfe/gJvy1g8o2tOX3fuA1iBAgbxRZI+ESb1r6X0wZ3M1TiCcUelBARv15j7RNbacbwyJul3HyN2ry3lK2md18/KF+u8tg2SDgH+977B43uG3n5ijbT2M/ejGOuWpn5/HD6P+FSl+vubtwOfHA0/KJcM9cq/8ZWSPjkvAjB081/Jn/xb2jsgNgbWAGKPaDwYws8qvx48CXave2Q7A841rGA7ZDo5AFRsICjLQBIHH17kDknWACQOOEuIA+OtgAgcfTtQeacYAFA4oS7gDw42gKAxNG3B5lzggUAiRPuAvLgaAsAEkffHmTOCRYAJE64C8iDoy0ASBx9e5A5J1jg/6ereSviO6itAAAAAElFTkSuQmCC;" vertex="1" parent="1">
          <mxGeometry x="335.52" y="665" width="98.19" height="85" as="geometry" />
        </mxCell>
        <mxCell id="qZmVdzLqrXIxTYNHXZgQ-62" value="Cloud Server" style="text;html=1;strokeColor=none;fillColor=none;align=center;verticalAlign=middle;whiteSpace=wrap;rounded=0;fontSize=24;fontStyle=1" vertex="1" parent="1">
          <mxGeometry x="575" y="151.75" width="170" height="20" as="geometry" />
        </mxCell>
        <mxCell id="qZmVdzLqrXIxTYNHXZgQ-63" value="" style="shape=image;verticalLabelPosition=bottom;labelBackgroundColor=#ffffff;verticalAlign=top;aspect=fixed;imageAspect=0;image=data:image/png,iVBORw0KGgoAAAANSUhEUgAAAMkAAADBCAYAAABllZRoAAAgAElEQVR4Ae2dB3gd1ZXH2exuAmmbyiabbDYFCL1KDxY29IQQSiAkhBCc4ARsg002lCRLCcaGgE034IqNGy644W4M7kXNklzUpWdbsqziJqs89fLf7z/yla9G782bmTczb5509X367p3yptw5vzn33HPumVOg/lQLqBYwbIFTDLeqjaoFVAtAQaKEQLVAlBZQkERpILVZtYCCRMmAaoEoLaAgidJAarNqAQWJkgHVAlFaQEESpYHUZtUCChIlA6oForSAgiRKA6nNqgUUJD6TgQ4AG+qAaYeB9XVAsAVo7/LZRQ6wy1GQ+OSBb64Hnq8AflwAXJ3f9/++IPB0OfDuYeDjWqCoGWhV8Hjy9BQknjRz+JNsawBerAB+WtgXinCghFv3mxLgyXJg0iHgo1qgoBlo6gx/PrXWXgsoSOy1m+1fpTYAYyuBW4rsgxEOFv26X5cAfz0ATDgErDoO5DYBIQWPreemILHVbNZ+lBECXq0EbncZDD0o4ZZ/WQw8cQB4uxpYcRzY0wjU0RBSfxFbQEESsWli25AVAt6oAu4sdldjhAPBzrpfFAOPlgHjqoGlNUB2CKhR8GhCoCCJjYVev97VCLxVDfBtbUdQ/fibnxcBfyoFXqsCFh0DMkPAkfZet93vFxQkMT7inEZgfDVAG8CPQu7WNd1aBAzfD7xSBSw4BqQ3AIf6KTwKEhuQ5Dd1jyb9NjiwwDAD3M2FwEP7gTGVwPxjAAcqKttsNLKPfqIgMfkw6JeYehj43V4FhhlY9PvcVAgM2Qe8WAnMOQpsqwcOtpps/DjvpiAxeADBZmD6EWDwPgWGXuidWr6xAHhgX7cjddYRYEs9UNZi8FDisElBomv00laAD4sPzilBUMex3pbXFwCD9wJPBNvxeHaN7il5u6ggAVDe2t0FGLrf+sNUADjfZuyaDdsTwl2LC3HGqI/xXmqpt1TozjZgIaExScPyYQWGbzTmHwvaMHjDQZz9j/UaHAREQaIj1u1FDlEuPAY8Uur8209pFHttendRF4Zl1OCGaTt6gSEAUZC4TQWAo+3Akhrgz2X2HqISfufb7YYCYGhuI+5eWhwRDAWJy3Ac7wCW1QCPKzB805Xiy2ZwURv+sKkCF4zdZAoOAYqySRwCpr4DWHm8O/JVvf2df/vbbdO72J3KOo6fzNhpCQwBiOpuxQhIYyewphZ48oB/hMKuMPWn312Tz+5UE36zMmgbDAVJDHC0dHbPzHumHLgmwiy+/iRwiXQv9xe144EtVbj0tS2OwCFAUd0tE8Bwjjfne48sB+hkSiTB6e/Xege7U9m1uHn2bkfBEICo7pYBIJy+vanuxLzvGKa39nchjdf9Dclrxm9X73MNDAWJARxb67uD4GKZ9x0vwenv5x1U2IEHtx/C5eO2ewKHAEV1t9AdTu3FvO/+LsRu3N9thV14aHc9bpuX4ykYApAB3d3S5n1X+WPetxvClejHfDC/BfetLY0bGAMWkqzGxJr3neiCbvX6f1vUiSEph3HlhFRfwCFA6ffdrZ553wNseqtVAY3X/j9jxO3uBtyxIN9XYAhA+m13K6dpYM77jpeg2znvAwWtuH/dAd+C0S8hKWrqwtiDXbhXzfv2rR/nnqJODE0/imsmpScEHAKUftPdOtDYgcs/OY7btjdgWF4rhgc78SvVxYo7MPoJTELwEqnsd5AQFPn/5ykNeCivFQ8HO3FXP8pHZaeL4+VvIk1gSiQ4xLX2e0hkYFi/K60BwwvaMCzYCSY+81Jw+vu5zExgEoKXSOWAg0QPzd3poR5omPCsvwuy0/dndQJTIsEhrnXAQ6KH5p4djRhR2IYhezvxUwVNxJeG3QlMQvASqVSQ6GwYPTT3ZTVhRGE7Hgh2RfzAjdNvZ78ez4kJTIkEh7hWBUkUSPTQ/C67CSOK2vHHYBeuGwBh805PYBKCl0ilgsQiJDI0V647jt/vbMIjRe0YHOyK2DXxq2Ywui63JjAlEhziWhUkMUAiA8P6NRvr8IfdzXikuAO/S0BovJjAJAQvkUoFiYOQ6KG5YXMdHtjdjBHFHRhU4l9N4+UEpkSCQ1yrgsRFSPTQ/GRLHR7MacGIkg7cG2do4jWBSQheIpUKEg8h0UNz87Z6DM1twfCSTvzag2gAP0xgSiQ4xLUqSOIIiR4aEXfGEBon4878NIFJCF4ilQoSH0Gih+bOtBAeym/T4s6sfiDUrxOYEgkOca0KEh9Doofml2khDM9vw0PBzrCfm06ECUxC8BKpHBCQ/C6jAX/a1Yjbt9X1ihDWC2GiLd+dEcLwwlb8Zk9zwkxgSiQ4xLUOGEhym/l54y4sqm7Hq8EWjNgVwq1b+wc09y93Jp2nEApVdn+XRLTDgIKEoMj/GaEuLKhqxyslLRi+M4RbEhQaBUlvoRbC7VQ5oCGRgWE9vaELH1S2Y2xxMx7KDuHmLYmhaRQkChKDfIsnN4npu+HsCtokAojHJs8E/6dsTMXmimM968V2uUyt78L8yjaMKW7GsKwQbt7sT2gUJAqSkyQY1KxA8uWrrgf/z7z9V7j1iadNQ5NS14W5FW14sagZQ7NCuMkn0ChIFCQGaJzcZAcSAYsorUKzra4T75+AZkhmCD/ZFB9NoyBRkJwkwaDmBCQCFlHaheaFwmY8kBnCjZtqPRlyVpAoSAzQOLnJDUgELKK0Cs2W2k7MOtiG0YXN+GNmA27Y6A40ChIFyUkSDGpeQCJgEaVVaDbXdmLmwTaMKmjG4B0NuN4haBQkChIDNE5uigckAhZRWoVm4/FOTD/QhucKmjRorttgT9MoSBQkJ0kwqJmFhMO+HP7lMDBHtijYQsidLq1Cs6GmE+8daMPIgib8PqMB15iERkGiIDFA4+Qms5DofSR+hmZdTSfo4wnn+5HXKUgUJCdJMKhZgYQaI9Jb3m/QKEjcBcBM6MqAC0uhJgnXrfIbNMLzryBRkJxioBwsbTKrScxqinhCQ5AVJPGHQ2iZAaFJrllfq/Xtn81vwnvlraCBLITQj9AoSPwDCEEZEJDIRi7r122sxf07GvBcfhNmlLeBQ7F+gkZBoiCRu1GedLf0kOiXr9tUq/kp6OSbWd6GTXGGRkGiIPEcEhq/P7cwdfeGTbVaGMnzRc2YVd4Gesq91DQKEgVJXCDJauzCkup2vB5swf/ubsQd2+uj+h+Exrlxc60WsMjAxdkVbdjqMjQKEgVJXCCZdqAV6yWDPSvUhQ8PtePNYAse3d2IX1iAhiHxQ7JC2rySORVtYMi805pGHE8NAccfmAFluF+7sVYL9xiZ34TpOoN9Z2MXlh5qx1v7WvDYnkbclWJe0/xkcx2GZHdDw0lZKfVdMUOjIIk/HANqCDiSPaKNcmU0aAGGHOWSDfZdjcCyw93QPLGnEb+yAM1PN9dp03057ZfTf9MsQqO6W/4BZMAMAbPLsri6Ha8FW/DIzkbcFsGIv35TLf6Q2aDN/9Ab7HuagBVHOvD2vhY8kWMNmp9tqdMSSzDBBBNNpEeBRkGiIImLTSK6Lyx3hLqwkKmEouTf4szCP2aG8HxhM2ZVtIGTqMRxcpqBlUc6MH5/K/6a04hfp9bjCpPZIJm6aHh2CK8Ut2jXwSwt4rjCuSmWlU0Sf2AGhE1i5HGnMGY0dGFBdTteLmnGw9kh/CxC/q0fb6rFg1kh/KOoWZvbLhvsPM7qIx2YuL8Vf8tpwj2p9fjvdb2/KS9Gy/TlbVvrMGJnSMv/RXh3SNAoSBQkcXEmGnncKey0IeZXtmNM0Yn8WxGgYbYUZk0hNHMq27C9/qSm4XHWHOnApNJWPJnbhHvTGnCVBWjYLXytpEWFyo9SkHgCCd/GRrmAjTzuFPbUui7Mq2zDS8XdqYRomOu1AZcFNNyP+zNvF38v/tce7cCU0lY8RWjSG3DVenszEfXnVvNJ3AVpQHS3CAkF1WwuYCOPO49DjUH/CDUI/SWR8m8xAyQzQdJgp2ZKk7pRPM7amg5MKWvF0/lNuC+9AT8yORNRQeIuFGLoV5QDBhK9M5FCajYXsJHHXYOm7iQ0tFlou+gFmcsc5aLNQ9uHOYgzdJrmk5oOTD3Qir/nN2FQRgOuNgmN0iTuQjMgIBECa+RMpLCbzQVs5HHncbbWdWrhKxwV4+gYNZO4BrlkVnvZYOcAAn8v/tX0XXeFX2iKaOWAgkQWUNaNnIkUVLO5gI087jwOAyRF/i36YSLl3xKjXK+WtGifiGD3UI1uxR+UAQ2JHhojZyKF3WwuYCOPO49Dzz49/M8VnkglFCH/1u1b6xQkanQLnoxu6WEwu2zkTKSwm80FbORx53FE/i2mEuJkMHYLzV4j91M2ibvaRmkSk15yCmM0Z6KAJlouYCOPO6FhtDIHGp4taFKaRGkSf2uSaG9z4ReJ5Ew0mwtY2CL84pbyuLurFaIZ6eG2K01iQZOYhSaSM9FsLmBCozzu/oFFQeIgJHqIojkThS2icgH7BwilSVwEQg9IuOVozkSVC9ifsChNEkdwlDPRn1DotYmCJI6Q6LWNMOCVM9Ff8ChIfASJHhrlTPQHLAoSH0OihybSsnImuguTgkRBAn0fXC33hk5BoiBRkETx6itIFCQKEgWJuWQMkfr7ibBe2SS9u0dOdxeVJlGaRGkSpUkSQ5M8l9uIF/IaMTjdfHpVoeWUJlGaRE5mF7Fu9Dk4IUx+LddVt/W6r7VVrWo+SZS3u9NdKqPjqe6WD7pbofauXpBw4d29zaZBUZpEaZI+AhRuRSJrkrLGzj631NzRhUFp5rpeAwGSi8ZswB2zd2HYyhKM3F6B6UW1WFAWwsIDjVh4sBmLypux8EATFpaFsGB/g7bP4+v2487Zu3DR2E2a3XXm85/Ysr+UJvGBJllwoKUPJFzxj/xGU9qkP0JCKIYuLcDLmYewqrq1J4MMZ27a+d9Y047xuTUYurwIV7+TYgkWBYkPIGGM1sGmvtrk5YKmAQUJwRi2ohjTi+psgWAFnoWlDRj+URAXj9kQFRgFiQ8g4YDC/2aHUCmBUt8+cLpbV765FS9nHUaGLpeyFaG3u++kvGO4eHI2fjQ+NSIsChKfQEJQrt1Qi6f2hDSj/c/ZIVNahL9L1O4W4Xhnz1HXtYYRQLdsrcWgj8u0axidVomzX9rYBxYFiY8gsTtEnWiQsFs1MqXCUzhmH+zO3cykHfzALP/52b/rNtRqn94gSENWFCJpYhounpiJM59f1wOLgkRB0iMMRr4Cp7b9flkJNh5r9xQQghHpBcRtQtM8lnIISeNTuv+nZOLCSZla2yhIFCSeQELt8crO+HSt5O9dUnPIwDCNrMjBTGACS8pOgjI+BZdNycTY9SVhRx+9WunrDI5yY/q57vfu1o8npjoyjCve+FZL+dmx2yUvs85kgTym0DiBpeW9QAlMTsfcvCNeMdHnPAoSBzSZnyG5aWpWn09MWBXyWPenpngj2KLBMbksfMiPsFEEQIFFpb1AYTfshdSKPgLsxQoFiQQJG5zDwI/vND+yxYfqV0geXru/p78fq6A78Xt2td4MtmiaQ8AgSmHEi2WWyfOK+oAy7JMyL7jodQ4FiQRJUX2H1jgMeJQfVrS6HyEZsemgrwAhZLQ/CAM/AButTcX25Jl7+oBy57K9vYTY7QUFiQTJQ5kN2Hq4DX/KbjD9EPkw/QbJw2v2+g4QAQm1Ceu0QwQIhuWKSiRNSO0DylMp1W6z0XN8BYkEieHDMtjPT5DctzDPl4AQjGFZ3d1Y2h+ibqbNA/ODfSChjfJ+wbEeQXazoiAxEH4zD5D7+AWSmyZnxN1IJwyR/p/J6/6UBSHhh5TMti/3S56+Kywo60rr3ORDO7aCpJ9AQj+IE9G6kQQ81vUc1aLRTpuEdYJiBZLLdcPCwul45bRM5B8OuQqKgqSfQDIj2P0Z8FiF2Y3f64d96Q8RPhEroCTPyAmrTW6em6MgsdKQ8dg33t2twWu7AwTdEPBYj0nNoX8mBEQPjn6fsMsRtAm1yiPr3BsaVpokwTXJJa9v85Udwg8lMQyF9gediLKwc2TrxROxWtwubzNbj6RNApMzkFLpTrdLQZLgkEwo6B5SjfWN79TvZYOcxxSf+CYg9I/QFqFtYhYK/X762C5hm7D85eICV7pdCQ3JuQsO2m5sfePHshyv7taPJmZEHElySujtHEd0sQiErW6VwYsr8PExJE3JDGubEJQpuw45DkpCQ/Lvb+7GZ57ags+NTMF3JhfgkhWH4wJNvCBZWNboS0jYzaLmICxW/CFmX1SBuYURIblu1i4FSbiGJBzfm1aML72YgU89sR5fHpOJM2bt9QyYeEBy19w9vgREaB67Nke456tfF1heGRESapPXdjjrjU9oTaJvPLF87oJyfPPtXJz2zDac+vdt+Ma4PThvoXtds3hAMrHQWrIGGtRrjnR4BpadIV7x/MyUSe9G7nLdMMfZIeF+CYncyJesOIQfTA/iK2Oz8M9/2YB/+0cGvjO50NGumdeQXPLG9qjCTijEW50l7QN2gbwAhd0t07FZBvaH/Bz19eRZuYba5O1dzs0/6feQ9Grcj2tw7gfl+Nb4PHx25Hac9vdt+Prru3DmrH0xdc28hmRkWlUvAGQYRJ0Gs6izFHYC24OjS/I2p+vCcO/V9jZhiHSMwIK9hpDcsSjfMdskoSH5xrjd+M6kAk3wAx/XWBb0i5dX4wczgvjaK9n4579s1Gyab0/Mt9w18xoSM3PUKah6UMTQK4dlaVCz5D/f+uweOQGLF4Bo4KysMoSEtkn+oQZHQEloSM6eV4qvvboTpzy6Dl98Ph3/8U4uzppTiktXHbEMTGBtDc6ZXwZC8vnRqfjss9tx+hu78f0ZQVwaZdTMS0iuHLfNlDBT6MW0WFn4Zx1s6/m9fuQpGijCxyEfT9TZvRM+kUhvf6fXhwuhJxzi/6WUgwoSudEvXXlYGwamcPcI+PQgLvqwyjIwPO5FS6vw/fdK8PVXd+Jf/28zvvTSDnx7YgHOmX+gz/G8hOQvG8yFoAj/BLtZQpDlkkJNG0VuQ9Yj7S9Gq8KBF27euv64biwnTUrvAUKAIZd3LXSmy5XQmsSo4WUt85WXszRj/byFFX2EwugYYlvyR8dw9rwyfGt8Lr74Qjo+OzIF//7Gbq2rdtGyak9D5ReVN4UVehkA1insvH59l0vsp9ci4l4p8GIfUeq7UNQoYhtLt0eyxLXpSyOnImG5YsoOpUn0jRZp+cIlVb20DA33H84tw2VrjtqC5sIPq/C9qcWaLUNn5sXjuvNDOZUby+g4snBGq1O42QXS72f05udv5P0JhL5d9aNkRsfT/9bJ5eSp2YaahKCkVMZulyS0JqHhbbXRL1t1BGfO3t9jy9Cm+cHMvbhoqfVj8dxJa47ixul7PMmd9dPp2b0EWBbmcPXFJwRcHs2SR7kitZ3c5YqkcQiKrFHcHvINd62RJmLJXa6ntsZulyQ0JF97NRtffSUb351ahPMX2XMWckiYxrqwZRjecv4ia90yr2wSO9lPhDFNUCj8cqK4cILHdaKLJrpskfYTWsoMeJGOEcv6JBOa5JdLYg96TGhI2MBnvb9fC0Oho5BhKRR42g+0I6w+ABrrDG/56itZ2ogZtQyPlbTG+FheQfJcWrUlTULtIrQJ24Jv/3DGur6dhPAL41+/XV4mfGbAk3/jVD1p8o6o3a3rHYjlSnhI5AZnl+nbE/Jx6jNb8flRafjGuBwthoted3k/M/Wk1Uc1AL/xVk4vLXPx8r7H8gqSGSX1liEhKE/nN+Gx3Y2WpszSMx8NqEhdMdo10X5r5hlE2yfa6Ba7XVdOjd1471eQyI3Kt7+sZagVqCUuWGKtKyWOyZGx/5xUoGkr+mW6tUypBp9XkJgd2Qpnn3CdfpRK3JvdksfUj2wRHK6X55XYPX6038m2R6R68qS0mEe4+i0k+gY+f+HBHi3zhdGpmsDT55G81rgrpT8Oly9eVo3vTw/ia6/txGee2urZ6FYsiR6ctBtopHMClR4Grud5uJ5+mHBt59S6wMrqqF0tAU5re9+vmFkhJ6EhOWv2flve9UuWdwc9MqSetszpb+zCmbP3gQ5Jqw+Rts+N03M8Gd36847jCOfHoFBG+9e/8a3ep35/QiDOKWwSAQ7XR9JaTo2CBRb3zRUsoNCXwePhv4lpFpSEhuRLL2XgtBPhI4zBomNP/zCjLSd/VIOz55ZqIS20ZahlvjetBPSFRPut2O5VdyuwpjvcRnRphJBGK53UIuKe6YEX52WdNogZLcJ9mDx7WHYopkjh5Ll98wTr4RDL68ti85UkNCR8YOwusevzhdFp+PRTW7SRqe9OK8b5i+3ZHhcsrsR/TSnsGTGjluH8FKMASq8guVzqGgoBNVOaGaUSwm+2lKEQ2oHagxCIEJZwx+K+YoiZ1879GU/GgYVw+0dalzy9b45gAYW+/DBYa1ZphN0v4SHRNyL9Hqe/vhufenwDqGlobEcTcv0xxDJnPJ4xc58W6ChrmUtX9e6WeQVJ8sqTmtIMHGKfSKNQ4j7tloRCPwpGeMyMbBEWcX2inFwa/rMM+usLrJa+iCUFNOrhEMt5xwZwd0vfePrli5ZV4TtTCrUhXM6D/493cvDDOaW2wlGoSc7R4rfyNK0lbBkmo/AKksuWlGtvW9oAQrDMlPp2cXKZ10LPO7tQgzKsJRqnxhFdNNpMrEeyZeRrTl64z7TRzkjhtq6wCsL0yn6nSeTGlOuXrWY4yj4w2PFTj68Hk0icMXMvwvk95N9Fql+4pBLfnVqMr4zN9mx065L5JyeHmYGD+4SLvYp0T3bXU3OI0Be5+yQMeqPjUqMIm0aAEk0TJc/YbRqSy6dmmYYh0o4JDQkdhxfajLni8C8DHT/95GYtsrfbh1JpqV8sHv49i4o9Gd26aHZhz/XJo0tGwFj5Foi4H7slBZ5dO3rsowm6fA55X2oSEUoj7yPqAROTrUQ3i+XVs/dEkn3T6xMakrPe36c59TirkBqC4fGiMa2UdDDSWP/iCxkaNOyWWcnp5VV364JpOT33J97cRoCIbRReK+3hxr4EgddDaBkqI9tJXCeDYnT+5PcLTGsRQnLroiLTMETaMaEhkRvzvAUH8c13cnHq01vxuec4jFtsSzBorP9gxl5tshXtDiaQoOfeKH7LK0jOm5Ddc09W7BLZR2JWGOW2jbXOa5V9KIRFviYuE/po57GqRQjJoDX7I8m+6fX9BhK5gekvoWb4wvNp+Nf/26T5QOyE1dNRSEP/m2/l4HPPpWiJI8IlwfMKknPGpfcSJKEpopVCINmV8SJcRH4WRj4dwiNgpy0TDWCrWoSQPLEl9o+R9ktI5IfE+e4cxqVG+KfH1msTpcJNwZV/E6lObcUhZaYl+qfH1+P013dpSSi8guSM0et6IAk3hBoOFgofBZH3JLZHuj+n11PoCaU4b7SS1xqpaxhYdtBSN4uA8H/ZvtgciVQ3CQ2J1ZEp5pHljEQmq/v0k1u05BHMyWVHODh3np75r77s3egWZyxeuqDb7pIdcpGETwZEhL9zXzv3a+c31GCRri3S+kiOyOQZ5p2HApDAu7GPbCU8JJx0xWhcJmzgXBCrD5KagfNPPjcqFZ95eqsWAHmJjfitexYVeTK6RUjOn7RTu08zkAgNwnYR+9P5Z7WdrOxPMGiY622QSFDo1/N3+vMFlpiP0xKAsPz18qBpu8Nox4TWJGxMGtlMzsChXE6Wou+Cc9r1DR1tmbFa//VuEb780o6erhQhivY7bvesuzXqY/xw7BbtmqgZqCn0QiaWCYV87WKqbaQ3tbyv3Tq7V+L8sZSyQzGw+jCSp2bZ6mpNzDlqJPumtyU8JPID5SxCTudlSAptEAq9nRgubYTrRCj8v/xtkzaHhI5H+Vxy3UtIqE2E591oGFjWIrxWQkOoohnH8n1ZrRPAWOAQv5UHF6w4DmUtkjRlBw63xBYiLyjqV5DID5WBit98Owf/8tdNWrAiR6XsJM3WJm/NKdXsGEYcn/bsNi3UhQklxPm8huTC6XnauYV2EMIlynBzOTjKJEa5xHU7XdqxQcQ160teW+D9fFsahLDcuqhQyHjMZb+FRBYAGtlMkn0ap/WemHDFQEh5H7P1c07kEmbUMf0oHAS4fU6+ZzYJNck5b6QZQhLJ5+CmFmH7sZukF3a7y4H5JbYBISTPpjr3+YWEhoSTrhiTZVbAuR8nXNHQpx3DnFnfnpCnZWU0CoWPdHxqKwZQepl3i5BoXa4PK3ql9JGFMdIwaqT7cHK9fB2iTo1HcI1sKLEvy8nF9TEBkjQ5A1lHY4v8ldVPQkPCUHimAmKwojazMErOXr0wMOSdtgYN/k89sUE7DidgcSKWfl+jZa+7W4TkvInZWvdJFi7W45UoTrSPfD0cSZPjsKjJuI77RIo9y6jvxNXvZsQEyYNrY/ey9xtI+GCY1YRvc35Ggf+nv8n0o3thNUMKvesMPyFwIhyF3najcBQhGPGAhKDctLr3Jxj4po6nFmF78BqoOURkr2gjURIUapVwgw4E5BfzzEf49jLUTzgPr5iWjdL6NlnGY64ntCYRDS9KCjq7UpyCyyHhr7+2U8sKb8eHwmBJhqOc+sw27Xic/Sgb6+KcLOMFybnjM3u0CYVTP6IlX6Pf6oRZ1iaTg6GYNQih+euW2DM26qlyDBIeeMvhNozKbcS1YbKVe/2Q6F1nOlMmrDvlUYajdKcUshNa3/3hn1x8flQqTn16mxaacunKk7ZQvCChNrl04QFNe7htlLv1/Ah2YH5xTN0roVF+NGMX2jpjnGGlJ8TJsBT52BydXlfdhmdyGnHVuuOW+vduPQyGo9BDz5xZtGU4D56Gt9XzMTUR47f4PZSe0a253o5uEQ7xf+47Oyzfg9V7dmv/wKpDSJ6Z4wggBGVMRpUsho7VHdUk4a6qpbMLaypb8bfdId88TDodaXtwhiLD6hkxbMfpyNmJ/G08RrcEJJo2ORHP5S2AfLwAAAUXSURBVJYwu3FcpgRKnhybgS40CMsfO/wxUVmWXYdEPll9WxeWV7Ti0Z3+AYZ+D34hix/q+fRTm/GtCXkwG44ihCee3S1CcvZr2yHSDYlr8msZ+OgI7IS8y0Do64GJaVixN7aMKLKc6uueQiKfvKa1C4vLWzA8y1ryADcfPrOqcEovR8kYVi9C4aOdM56QnDX6E7y+oQSrK6JPWop2H25vT164FwwX0Qt5rMsvp1fKouV4PW6QyHdS3dyJeWUtGLKje96D2w/LzPEZwsI59Bwpox3DbI90XnJAQP/7eEEyanUBquube5ry/dLmPtemv9Z4LAeWlCF52k7H4SBcw1aV9Ny/WxVfQCLfXHljJ2btb8Zgi+lp3Hz4tFf+cxLnwKdrwHCUi9ODOeTM83oNyRMf5qDkcPjJRG8WNfkGlMCHZbAdoGgin9Ytc3bLouNa3XeQyHe6t6ED0/a14L40/2iYC5ZUap+W+zdtaHmdljXSK8N96LydyC4/LjdR2PqzOdayITr9ggks3o/k93a5ojlE1+xyB7LFh228MCt9DYl8vUX1HZgYbMbdKfHP/CGEij4XhuO7Dcm9M3Zgc8kRuTmi1kd4beutPoTkD4JIsjn3Qwi/2bK89mQ3M2pjxLhDwkAi32dObQfeKm7CnT5IleNmd+u2yalYmWt/7P+tYpdtlLXHEFhajuRZeUgan+qq5pDh2X+8SRYH1+sJCYncKtk17Xi1sAm3bomfhnHaJrl23FbMyyyXb9N2fcOhNmdtlBWVSJ5fAm3O+cQ0z8AgJNfN3IXm9g7bbWH3hwkPiXzjaUfbMKagCTdtqnVWMD4xjhpwCpLLXt6IKdudjWBl++w83o6r11tvE/peAh+WI3leEZKm70aSx1DI2mPQCvdHsWRZkuv9ChL5xhhHNjrPm2/3xQqJ8HU0trr3llwVrMG966vA1DyBpQfBkSfNwF64D4EPggjMLULyrFxon31+NxNJk7zVEjIQ+vpfNpbKj9bzer+FRLRkVxfALsffcxrxPy7FkcUCid7XIa7bjTLncCNu+YD2Q3dOKr+XV0zJwNuZ7joKzbRzv4dEboS2TuCjKufjyOxAYuTrkK/ZjfqY1Apc+a7znm+noAtMSscjH+9DVX2rG7dv+ZgDChK5dULtXVhR0YrHd8UeR2YFErO+Dvla3ahzCHXISvOfVHMKAKPjJE9Iw9A1QQRrvBveNdO2AxYSuXFEHNkj2faAMQOJHV+HfI1u1bMq6jB8TQn+24WYKiMg5G3JE1IxeGUJ9hwKuXWbMR1XQaJrvkPNnfjgQAuGZZoPvDSCJFZfh+7yXFusb+nACykVuHmec/M7ZBDC1W+cvQuPrduP1Ip61+7LiQMrSAxa8WBTJ2aXtuAP6cZhMeEgcdLXYXCJrmzKO9SA0dvKcfuCPAQcnPNBUG6euwcjtx5A/hFvHYKxNJSCxGTr7Q914r19zRiU2hcYGRK3fB0mL9OV3VburcOIdWW4/YM8XDsjG1fQ6J8QeYiYhvdV07Jx4/t7cMeiAty/KogJ2dVwc4jblRs/cVAFiY3WZRzZpGAT7jnxSQNC4oWvw8aluvoTCn3u0WYQotX765B/rBltHc7PMXf1JkwcXEFiopGMdsmtbcfg5cFe8zqM9lfbEq8FFCSJ98zUFXvcAgoSjxtcnS7xWkBBknjPTF2xxy2gIPG4wdXpEq8FFCSJ98zUFXvcAgoSjxtcnS7xWkBBknjPTF2xxy3w/9RSA076wv7ZAAAAAElFTkSuQmCC;fillColor=#FF9E1F;" vertex="1" parent="1">
          <mxGeometry x="612.3399999999999" y="54" width="96.33" height="92.5" as="geometry" />
        </mxCell>
        <mxCell id="qZmVdzLqrXIxTYNHXZgQ-64" value="" style="aspect=fixed;pointerEvents=1;shadow=0;dashed=0;html=1;labelPosition=center;verticalLabelPosition=bottom;verticalAlign=top;align=center;shape=mxgraph.azure.cloud;fontFamily=Times New Roman;fontSize=24;fontColor=#ffffff;strokeWidth=3;fillColor=#1DADF2;gradientColor=#ffffff;" vertex="1" parent="1">
          <mxGeometry x="587.5" y="108.25" width="50" height="32" as="geometry" />
        </mxCell>
        <mxCell id="qZmVdzLqrXIxTYNHXZgQ-65" value="Remote Device" style="text;html=1;strokeColor=none;fillColor=none;align=center;verticalAlign=middle;whiteSpace=wrap;rounded=0;fontSize=24;fontStyle=1" vertex="1" parent="1">
          <mxGeometry x="842.75" y="756.5" width="184.5" height="20" as="geometry" />
        </mxCell>
        <mxCell id="qZmVdzLqrXIxTYNHXZgQ-66" value="" style="shape=image;verticalLabelPosition=bottom;labelBackgroundColor=#ffffff;verticalAlign=top;aspect=fixed;imageAspect=0;image=data:image/png,iVBORw0KGgoAAAANSUhEUgAAANsAAADVCAYAAADeiYUwAAAdPElEQVR4Ae2dh3cT19LA39/yTvLel3IOaScv5QUSkgAJhBLHL5QAoXcCGFMcU0IAU0IzvUPoJQSwaabbMWB6wGAwnQAGUxOM1TXfGTmbXMmStVrt7oyk2XN0drUquzt3fjtz586d/QfIIhIQCdgigX/YchQ5iEhAJAACmyiBSMAmCQhsNglaDiMSENhEB0QCNklAYLNJ0HIYkYDAJjogErBJAgKbTYKOdpgqF0DZXR/svuiDpSUemLzPDaN3umHwFjf02uCCDqtckLbECY3nOeHdGQ54ZXI1PD+2Gl6a4IA3pzrgg1kOaLbQCa2XO6HLGif03+SC4fkuGFfghhkHPfDTrx4oueGDO7/7o52KfG6RBAQ2iwQb7m8RqIOXvbDyuAcm7HVD340uaLHIAa9PccA/v6+27YWQIpwIMAI55xcP5JV6oeyeL9xpyz6TJCCwmSTISH9TfNUXsFKtFjttgykecN+a5oDMrW7YWuqF20/ECkZqVyP7BTYjUqvjN7/e9sHCwx7ovs4Fr0y212LFA1mk37Zc7ISJez2wp9wLj6sFvjqaPupHAltUEUX/QvE1H4zZ5YaP5yQ+XJGgw/0vT3RAp9VOWHncK32/6GpR6xsCWy2R6Ntx8pYPpux3Q9MFieEe1gWRkc9ezHEE+pwYeBGLp09nBDZ9cgp862KlD+YWeyB9WWoCFgnKN6Y4YMhWN+ws84LbG4NAU+yrAluUBvf6AFaf8EDHVQJYJNjU/fVzHTBqhwuw7ypLsAQEtmB5/PXO4fbD8mPelHUTVYCMbqO1O35ToNOUSmDTJPHn+g+HHxYd8UCjuckd7DAKkJHfDfzZBUeuC3QC25+QPaqGQH/s/VkCmRGg9PwGB/ELr6QudCkP26NnALmFnkAKlB6Fke/En+mCY5B7y1MvkpLSsK096YUP50jgg+oGgpkq5ZWpM1CekrAVX/XC16sFMirI1OPWm+yAmYVuwIBUsi8pBdtvj/0waoc7IXIUVYVMhe1mCx2w5Wxyu5YpA9viIx54e7oEP7iD22ejC07dSs4gStLDtvuiF75cLi4jd8jU88MpQBP3uuGZK7kcy6SGbdoBcRlVJU607bSlTjiWRIPiSQnblQf+wBSXRFMuOd/awwov5lTD8qOepDBxSQdb/jkv/DdX+mbJBu6wPFfCzy5IKtgm7RW3MdkgU6+n+SInHLqWuMGTpIDtwj2fjJvZWMNEBcDubQyeYO5qIi4JDxu6jf+ZJm6j3UpPfbyMzS5wJBhzCQ3bulNeGaBOEYsWDu62K1xw94/EyTxJWNiwtmK4BpB9tSN6ySwTrPuC9TYTYUlI2GYV0YOGJd+wRALWWzxX4YNqdyI0tznn+PCZPzA/bc0JDwzZ6iK/6dWbVA2Hr/NP9Uo42LK300ccu65NLPfFHMQi/wvecDhYT6yBwnlJKNjaraBPu5p+MIVMWAyaixW2OACH06a4LgkD2zsMkoixlj6nxd/vW4Dte9mc0rbzPCzc/EM8w5QJAdu/x9N3+rG6cXklr444N9iQei5TmJYxTPFiD9t7TFKvuN4t2Zg15URe+4HHuCc+xITTwhq2z5fQ99G0fghO1ZFFnwQ4tdtpRvUr2cLWYz19SFkDDdc4k8CWpfAIwIY8gKdVfx+u4h7AqdLYXn//2vYtLF2nyo56+9J9Hu4/S9iyt/FqLFQWuxb/ey0BX2rgA/tm2n69azh51q5TrnUcjNhSA6YeH9P5ODz+ih1suYW8GkprtFoaZdGOAFjp3QDKr/59hPVbIbAfodPzGj4eAK0h0cINNmzDL5c5yafosIINx0g05ea2JtLbhDwsR9hQn7qscZE++IMNbAev+NiChg0li34JcIUN23HQZrrCJixgQ3+60Tw+kcdwVlW/qsk3OcOGbTu7iCYLiAVsvTfwC4iEAicI6ZcAd9iwbQsu2D+UQw7b1AP0GfyhYIV7r1/V5JuJAFuDmU648sDeIQFS2LYyyRYPB1foPkFIvwTm76ti3f/W2rbzGntzXclgO3/XnxDlDN4YcQ/Wt54epGkXy86BvIJloAro0Yp8GNS7ICGAy9ljX/+NBDZ87nLbH3kHRPDu13rQCTjbdEDNILOiTRfOlUJa4w/k9acMRg/NUKQD4F+yJiCz2R2WJgRw60/ZM0uABDYumeGaOxFund0jDxwN0v/K3FC1SWALvtFEgg2zXQrSvocGWddZQ1dvkgNO2vB8Adthw2pY4ZSby77nxzyF5e3m/gWZlh4lsAUDplr2umBD+V1p0gu69D/Eut07rrJ+/M1W2NB9bLGIr/vYeOgl+KVFdi3QUGHURSxbMHjRYNNuWDld1rMGbtUJa4cDbIVt9i888x7RqrYYXAqXm/QOC5rAFgyXatVwWy9sKMflbWezBQ6fp36/yrrZHbbBhtMcXp1MP+M6nLv6v0GnwKn0z7Q7sboWyxYZuFhgQ5nu+mIcW+DG77YuOmkbbMPyeFq1DgNKIlozgS0yYKp1ixU2lOvpZhlsgTvxmzWD3bbAtu8SzyTjzF47dIGGyqEu0mcLhtAIbCjTio87swSu53prgiW2wNaG4Zja9K9X6AZNYAuGS7VqsfbZUJahr3CuPfW+TWfMH3uzHDasckQtuNDjxwqawGYtbBwt3KfzHVDlMjdYYilslU/98O4MHpWWNOCMgCawWQsbypdjH27GQXOtm6WwzSvmFRQZ12VjLRcm1KWJ9F76bJGBM9pnC5U1tyglzgz4w2medbMMNhzA5jQhNLPndsOgoVKoiwRIgsEzCzaUc356Dqtux7IS86ybZbCtOcmnr9ZeZ3g/9E6rvhfYggFTgyRmwoYy3/TlVDbAfbbQoTZ9XNuWwZa+lEda1qsj78OZpgPjsmqoAOoili0YPLNhQ3l/1/VnNsD9fMacNC5LYNtRxifZeHWb3LhBE9iC4VKtmhmhf5Rv6Kv6/f9BesZpFsC1X2nOJFNLYOu2lkdNkawe+bUaMbRR9b4XyxYZOCssG7bLseZD4YXvfmcB3P5L8Vs302E7fI1HtkjzzHPwuGE7gc2GSa5WwYbALf1qHgvY+v4Uf1aJ6bAN3sLDqhW1HGEaaNjo6iJ9tmArZyVsKPuMXrtYABfvBFNTYbv6kMfTJyd0XmsqaAJbMFx29NlQ5toLJ59iLRgtMYFqPWpHfNbNVNgWHaEP9zcaWm6q+6g1uFi2yMBZbdmwDRZ+tZActvq5jrjKl5sKG4eEYxyj0QAxcy2w0cKGbdl64HFy4HaWGQ+UmAZbaQV9YKRvn/2WgIYNrS7SZwsGzw7Lhm1woNVIctiGbDU+udQ02HILaV1IDBGbMXgdyRoKbMGAqf02u2DDthnZfQspcG9McRh+9JRpsLVcTJsxYjSbPxJcofsFNh6w3fq4K7yVfYcUuJ9+NZYvaQpsJTdoM0ZeH3EXbn/cxTIXEsFTF3Ejg8Gz07JhW0zpvJoUtr4bjUUlTYENSzhThWPxuBO7mB/qF8sWDJTqNoZu2w3bjUbd4ZVRD8h07sUcB9z5PfapN6bA1mgu3QTRl0c/gquNe1pq1cSy1Q2e3bBhe4zvuoEMNrzBrzwee1QybtgOXqZ1Icd022Q5aAIbP9jKm/QhzZvstDr25OS4YZt2gM6FxFLhZZ/0E9hsyH8MdR3V9xSWDW+AI7tvJrNuL0+MPSoZN2w4/YCqv5bVI88W0MSy8bNs2Caln35Dpnuo8wUXYqsvGRdsj6r98NxYuirHB1qOFNiIrRpaOCrLhsBRPrBjXEFsA9xxwbbnIl1/DXMgUdh2vST0H9m6UcK2su0sMuuGY8uxLHHBNnEvXX8Nn4hiF2h4HHWRcbZg8Chhw/FVygmmlVWqZtS9HRdsny2k668dbj5cYGPgQlK7kXgj7N13P5l123JW/xCAYdjuPaWbu/ZZ5nlbQRPLFmzJ1EgkB9g2fDmNDLbh+fr7bYZhyyul669N7bRSYGNi1TjA9uDD9oBV1Cii4vhMN72LYdiGbqUrf3CiWabAJrAF6UAfQlfy1hN9qVuGYWsyn6a/9trISvDU/zxI0HYEStS7lwRIgt1KygCJ1vbz2y8isWxoTbef19dvMwwb1fhaxwFHbAdN+mzBcHHrs2H7lDQfTgbbzCJ9U24MwXaNsLDP5M5rBDZGLiSHPhvCho9p/j+iGpMDf9YXJDEE255yuuDIvlajBTaBLawOUNUo0fs8AEOwLThEVwLh6Qdtwgpa892tWkufLbIryaHPhu0+qfNaElfypQnVqnpE3DYE2xCiSGSzIWUkoGFDqosESILB4wJbweffk8CGQZLbOiaTGoItjegJNYN6FwhszFxILn02vCFeb9SDDLbCK9FnABiC7dXJNDOzczv+KLAJbHXqwHPfPyMBbqmOhybGDNv9KiC5GDTVeekT6xS0Vf01cSOD3UaOoX+t7T8edplEP7O3R49Ixgzb4et0kcjSpgMENrFsdepA9/5FJLBhNfBoS8ywoW9KkYOGx6x6v3WdgtbublasVUFKgCTY0nEJkGC7j++ynkQ/my+yADaqCaNvZ98mAw0bUV0ENr6wrWmTSwLbh3MsgI3qEb44YGmFxdL7nwJbMGBqv42TZTvcIosEtremRc/+j9mNxMlyFG5kr74HBDaG/TVOoX+8cWK1NQr91DOwHTNsG0/TwJbVY5vAJrBF1YGKjzqRwIaA+6LMtIkZttUnaFK1MBVHr8tnxffEjUwMNxITkiksGx7zD2fdtMUM27ISGtgWtF8ksIll06UDWJKeAriKKClbMcO24DANbBtaT9claCusGv6nukg0MtjKcQqQYFu9l3WTBLZL9+tO2YoZtllFNOXrMMnUKpD0/K/AFgwY12gktmWzzPMksJ2+bTJsuYU0sBW1zBbYxI3UpQPpGadIYDt202TY5hXTuJGUeZF4t1QXcSODrRw3N5IqP/L8XZMDJIuP0MD2Y9vZuu5qelxCI98R2IIB4+xGvjHiHollu/nYZNhWHKeBjXJ6jVi2yKBxG9TGtqKaZvPwmcmwrT1JA5tdDz2MZPXEskUGjpMb+aRhOxKrhkMNzihFtmKORm46Q5NBQjlLWyxbZNC4WTaq2dr/Ghe9DknMsOUTlR3v1P+w9NkkGhlVB041yyCxbK/9YEEicsEFGsv2ydCLUQUdyQU0Y7+4kZGtGyc3cscX40lgey/XAtj2X6KBDQtwmgGN0f8Q2BIDtjkdlpDA1mSeBbAVX6Wbqf1bo65kwAlsiQFbZs/tJLBhxbloS8x9touVdM9lo8wiUQUpg9rB4HFyI6myR3pvcKkqEnY7Ztg8XrrqWpQD26r0BDa+sFENaE/ZHyXuDwAxw4ZK12AmTd1IyrE2gS0YMI4ZJJRjbDgkFm0xBFvnNTQPQqQM/6uCFMsWDB4XN5Iq7I8D2tEy/lF/DME2toAm8//1EXclQMJwrI0LbCvbziIJjuiZpW0YNqrSCHhRl5v0JgFOLFuwNePoRg7utYMENj2VtQzDRlkVed2XNDO2BTb+sDUadokENj3VkA3DVklY7z+rR55YNmauJAc3krKq1rfbotf5Nwwb/rDeJJqIZMvMUoFNYKulAwVpdM9mwzmeehZDARL841aLnSQm+/kxT+Fhw/a1hG00DUvv71RhSjQy2KXkYNmmdFpNoo8YR8AURj2LYdjG76aJSAYurtUogY2RdeMAW8cBR8hgi1YvUgPRMGwHL9MkJCNsI7ttFtgEtr904FKT3mSg6Xl6TdywVbvp0rawLqCr/hd/CVuvKxjP9zSB4VrcSF5u5IKvFpLBhh6e3sWwZcMDfLWCpt+G1m1n2jiBjYl1o3Yj2ww8Rgab3v4a8hIXbHOJytohbEN7bhfYBDYo/fQbMtBeyHFErTuiWr24YCu5QTe37c3sCvj9gza2AacKTdxIPm7kzA7LyGBrvzL6HDZVb+KCzesDwNoLaGkoXpvTJwtsDKwbpRuZlnGGRPdQ33ML9Y2vacDFBRv+Se+NNDMA8GK79i8W2FIYtj1pY8hAQ/07fK3ucuMaZNo6btgWEVVI1iwpCjyeKKPe32oCw7W4kTzcSLzZanpg9/rt6Y6oDz9UdQa344YN5/HYfaHq8eyybqrgBDZ62KitWsbm6GUQVJ0xBTb8E8x6VgGwe9sO66YKTmCjh43SqqF+bz+vL0VL1Zu4LRv+GbUraYd1U4UmsNHCRm3VsCyIO3bW4ncjUQmvP/TD82NpIpKaFbXauglswYBRTh6ltmpjdunPGlH1xhTLhn/Ycz1dVBKBw0RUvcEOI99ThSaWLRg8O0P/eV9MIO2yoK4dijEKqemOabBtPE2XmKxZt9VtZloGnCYwXAtsNLB56qcBzmfU2ptiHUvisaozuG0abI+r/fDGFLoBbhR8w+FX4cGHHSwBThWcwEYD29z2NKXFVahjHchW9cY02PBPh+XRupIolIld1gpsNg902+FGXm3cE7C6mqr4FNvn7sY2kG0ZbLsv0ruSOJP7dNNBpgOnCk0sm/2WDWvPUMClHrPDqthyIVWdwW1TLRv+4afzaV1JFE6/vvsENhutm9WW7WDLkeSgoV6tOmEg3q8QZzpsCw7TPAZYvQPh9gqTH3ivyEwCJCEgWwnb0w/aQNrgX8lhe3+WA6pcdT8zW9WRcNumw3a/yg9vTqW3bi+OfgIlzYebZuFU4YkbaZ8bmdVjGzloePOecTC2DH9VX7Rt02HDP6YsBqRauJaZZ+FRw3amAKcJDNcCmz2wLf1qHgvQXp7ogBuPjAdGNN2xBLaye3TPcFNhw218OJ6RQezQ32gCE9iCQbPqAfbFLb4FDHaFtifF++xtsScdq/qibVsCG/55xma6UnehDbKw/YK4gdMEhmuxbMHAmd1nu/9hB2g2pIwFaKhLJ36L36qh3lgGW+EV+mEAFbp4cycFtmDArMyNxGiy2naU25iGaNZiGWx4gh1X0Q9yaw318uhHcKbpQMMWThW4WLZg8My0bBm9drIBDXVn14X4wv2q3lgK26YzPIYBNODeyr4Ddz/qZAg4VWgCmzWwcRi41nQF11/oeCi9qhfRti2FDQ+evpR2YqkqPNzG/MnQ4Iee96ogBTbzYcvpvI6VRUNdWX8q/nC/qjeWw7annFffDYX4Web5mIFThSawmQsbPnMv9KZI/b6HiX01TXcshw0PlJXPJzKpNWLrQSdiAk4TGK4FNvNgO9Q8ix1oOBH65C1zIpCq3tgC2/WHPvjPNPqsEg00bd1g+DXdwKlCE9jMgW034TPVNB0It/5hv7nuo6Y7tsCGB8MHxoW7MOp9b2ffhhuNukeFThMYrgW2+GHj6DqiLn4y3wl6HwGl6oSebdtgw5NpS1yFKxLYr468D/tbja4TOFWYAlt8sOV2/JHljRf14+cz5oX6VZ3BbVthO3iFtsZkJNhwPyYu76jjyTiq4AQ247BxC++rOtH3J/MGsFV90bZthQ0POmoHv2CJKnCceh9uKEATGK4Ftthhw4SC9gNK2Fq0F3OqobQivik0qo6E27YdtttP/PDBbF5jbypsuN23z/5a/ThVeAJbbLCtbpML6KqHypnTezOm0Kg6Em7bdtjwJDiOvYU2fIOs65CfnvOXlVOFJ7Dpg+1xw3aQ1SOfNWSBm6vF7qOmOySw4cHnFfN2JzX4JnSuKSCkCQzXCFu/zu3l9acMwuVGFrUcAc0zz7EHDaOPd/+w1n3UdIcMNjyBwVv4JCprcIVbp2ec1uQlax0SKNp8lj1k2M44eP3LVfMHryOJiBQ2rDXZcjG/we5wwEUSoOyvLYHpBxPDa1lWYs3gdW2J1OwhhQ1P4fhNH+C083AKzmlfJAHK/toSSATYsrcbq9df+2r17yGHDU91zUme2SUq7PpFasM3C4+APysH/Ondwd8/G/y5iwGeVtlwYH2H4A5b6+VOcNhr1AKCYwEbnsnYAt6ux8Nn9nSio6mzf8aiAGhw8ixAxT0IrLfvBf/XAwDKr0b7uS2f5+zh2xfHEvlWj6dFEjIb2PAEu63j20grjhPcCkNbbf3WGisWuh/fV9yrAY6BhevzE992zD9nXTpWuGZR97GC7XE1QItFPAe88emq1Is/vRtA1bOIpxFwJ7fvjfi5HR+UV/qAK2zrTtGBhrJnBRue0PVHfnhnBr+AyauTHXboauRjPK0C/yftIn+On2zIA3QzKZctZ72QwXBIZ6nNkcdwbcAONjzJU7d85E8yVYMjuN19nQvu/E7Yb0sQ2LDG4khm+a+zihh0AThaNu2OcOASr3IK4wvcYPTxrto1xbvm7kZeuOeHj+Y4oP1KPl0BihB/pHZmadm0k918lg9ws4tqhidKbhD6/XUGSCrB//U3pEMAg7e44btdbmgwi0c3oN0K+n62psu4Zg0bnuDyozzG4PBBj/OKPQF30mtfho/aVoFt/7gZ4B+fC3CqFKCisma9Yx/4O35DGvrHKF+9SdWwp5zHnMV3phP3sWu1XALAhueM0x9C+1AU7/df8sJ/cx3QcZUTHlQR9t9wUHv4eEC30t/v25qgCGHIX0tK2Fvug06r6cP+/xrPDzTUY/aWTbtBrGWSZXLhXs2dO22pE648IAROEwzxev6hmhth5zUuFl4IPq6M65IwsKEAOQRNcEoGToD9fpcbXppQUzUXI3Cbznjh8PXUeM0qcgPWwH9/lhPqz3QG0u3mFtN7H43m8gUN9TehYMMTLr7KI2gyca8b8OEh+KTV/ptc8C7DsUGrXO30Zc7AM/iwvPzOMi80Z5CIgOfEfUk42FCgR2/w6IS/Nc0BXde6ABNvcfb5keu+lHhhlHj0Tjd8voRHiL/bWv6god4mJGx44jjw/fZ0HiFmqyyI/G911MBY5lb7p8oYtaAJCxtecGmFDz6eI8ClKpTjChIHtIS2bNrdBRNfv2YQbk5Vhae47ufGOmDhYR4pWJoe6lkntGVTL3DiXvpoGIXipdoxP1vkhOJrhFkFqtLFuJ00sOF155V6UyoqmGqgDc1zA07DStQlqWDDRrj8wM96EmqqAWLG9b6Q44DlRwlzUk2iO+lg0+Qy9YC4lWYoOvV/pC1xwtGbiek2arqorZMWNrzAnWW+QJYDtcLI8aOH8MPJCKfHVFn7rAuNA1vWSQ0bShAnfH63k3cxoXCKlsr7sDQGZa0Qq8hLetg0wWHeYpc1PDIeUhmkuq791cnVMPsXN7gTv3umqV3QOmVg0656/WkvNJor0NWl9BSfDctzw6X7ydE303QtdJ1ysKEAnjgAftjngX+PN9aXoFDGZD0mVi3bdym5IdOgS0nYtIs/c8cH/RjXOExWwPC6cJbEsqOJlwWi6Y6RdUrDpglsX7kXem6gn2GczHBp1/ZergNmFrrh3tPUm3grsGnEAUDRFS/gc5U1xZC1eW52w9nOwDP5HlWnHmSaiglsmiSUNc5LG7RZoDPjZtN4nhMWH/Ek1XiZoioxbQpsdYjr5G8+GLpVoDMCXbMFDvjxmAdcSRrGr0NtIn4ksEUUzd8fnL3jA0z/QgUyonip8husyYJu+M9nvJC6zuLfehO6JbCFSiTK+0PXfIHHW2EfJFUginadXda6YNVxD1RQlmeP0m4cPhbYDLYC3rl3X/TC8HwXYC2SaAqZbJ/j+NiCQx64nOQD0QbVI+zPBLawYoltJybLbi31AlZNxoBAsoGF1/PKZAdgbUgsmItutSyxS0Bgi11mUX9x5YEP1p3yJDR8CFeP9a5A+QGc4iKBjqjNHvULAltUEcX/BRzAzT/nCZR/a7XYCfUm8XM7G8ysgWvJEQ+cq5DwRvytXvsfBLbaMrFlT2UVBCoorz7hCQRc0EVDhbfSBUXIEfaMzS7AqsY7yrxwsdIPHgnP29LmApstYtZ/EFR8BKDwii8Aw8bTXlhW4gnAgVWYR253BWBBF++rlc5APwrzO4fnuwPQTjvgCVRpRojxKaB7LtaUREe4ZaGVgMBGK385egpJQGBLocaWS6WVgMBGK385egpJQGBLocaWS6WVgMBGK385egpJQGBLocaWS6WVgMBGK385egpJ4P8BADfI9zF6sXQAAAAASUVORK5CYII=;" vertex="1" parent="1">
          <mxGeometry x="897.26" y="665" width="82.25" height="80" as="geometry" />
        </mxCell>
        <mxCell id="qZmVdzLqrXIxTYNHXZgQ-35" value="" style="rounded=0;whiteSpace=wrap;html=1;strokeWidth=2;fillColor=none;fontSize=28;strokeColor=#FF0000;fontFamily=Times New Roman;" vertex="1" parent="1">
          <mxGeometry x="703" y="529" width="52" height="93" as="geometry" />
        </mxCell>
        <mxCell id="qZmVdzLqrXIxTYNHXZgQ-40" value="" style="rounded=0;whiteSpace=wrap;html=1;strokeWidth=2;fillColor=none;fontSize=28;strokeColor=#FF0000;fontFamily=Times New Roman;" vertex="1" parent="1">
          <mxGeometry x="829.74" y="229" width="52" height="93" as="geometry" />
        </mxCell>
        <mxCell id="qZmVdzLqrXIxTYNHXZgQ-59" value="detection result" style="text;html=1;strokeColor=none;fillColor=none;align=center;verticalAlign=middle;whiteSpace=wrap;rounded=0;fontSize=28;fontFamily=Times New Roman;" vertex="1" parent="1">
          <mxGeometry x="783.31" y="315" width="252.13" height="50" as="geometry" />
        </mxCell>
        <mxCell id="qZmVdzLqrXIxTYNHXZgQ-34" value="" style="rounded=0;whiteSpace=wrap;html=1;strokeWidth=2;fillColor=none;fontSize=28;strokeColor=#FF0000;fontFamily=Times New Roman;" vertex="1" parent="1">
          <mxGeometry x="1007" y="529" width="52" height="93" as="geometry" />
        </mxCell>
      </root>
    </mxGraphModel>
  </diagram>
</mxfile>
